<?xml version="1.0" encoding="UTF-8"?>
<!DOCTYPE svg PUBLIC "-//W3C//DTD SVG 1.1//EN" "http://www.w3.org/Graphics/SVG/1.1/DTD/svg11.dtd">
<!-- Creator: CorelDRAW 2018 (64 Bit) -->
<svg xmlns="http://www.w3.org/2000/svg" xml:space="preserve" width="410px" height="74px" version="1.1" style="shape-rendering:geometricPrecision; text-rendering:geometricPrecision; image-rendering:optimizeQuality; fill-rule:evenodd; clip-rule:evenodd"
viewBox="0 0 410 74"
 xmlns:xlink="http://www.w3.org/1999/xlink">
 <defs>
  <style type="text/css">
   <![CDATA[
    .fil0 {fill:#1D3752;fill-rule:nonzero}
    .fil5 {fill:#2C7695;fill-rule:nonzero}
    .fil6 {fill:#4D4D4D;fill-rule:nonzero}
    .fil1 {fill:#A7C4D2;fill-rule:nonzero}
    .fil4 {fill:url(#id0)}
    .fil3 {fill:url(#id1)}
    .fil2 {fill:url(#id2)}
   ]]>
  </style>
  <linearGradient id="id0" gradientUnits="userSpaceOnUse" x1="24.63" y1="24.17" x2="100.02" y2="24.17">
   <stop offset="0" style="stop-opacity:1; stop-color:#37C3F2"/>
   <stop offset="0.458824" style="stop-opacity:1; stop-color:#5885C6"/>
   <stop offset="1" style="stop-opacity:1; stop-color:#7A4699"/>
  </linearGradient>
  <linearGradient id="id1" gradientUnits="userSpaceOnUse" x1="26.93" y1="20.2" x2="103.83" y2="20.2">
   <stop offset="0" style="stop-opacity:1; stop-color:#FAEE40"/>
   <stop offset="1" style="stop-opacity:1; stop-color:#37C6F4"/>
  </linearGradient>
  <linearGradient id="id2" gradientUnits="userSpaceOnUse" x1="29.22" y1="16.22" x2="104.15" y2="16.22">
   <stop offset="0" style="stop-opacity:1; stop-color:#ED3237"/>
   <stop offset="1" style="stop-opacity:1; stop-color:#FAEE3E"/>
  </linearGradient>
 </defs>
 <g id="Arte">
  <metadata id="CorelCorpID_0Corel-Layer"/>
  <g id="_2937865889952">
   <path class="fil0" d="M136.83 52.27c1.79,0.57 3.2,1.52 4.22,2.85 1.02,1.33 1.52,2.97 1.52,4.92 0,2.75 -1.06,4.87 -3.2,6.35 -2.14,1.48 -5.26,2.22 -9.36,2.22l-16.25 0 0 -31.42 15.35 0c3.83,0 6.77,0.73 8.82,2.2 2.05,1.46 3.07,3.45 3.07,5.97 0,1.52 -0.36,2.88 -1.1,4.08 -0.73,1.2 -1.75,2.14 -3.07,2.83zm-15.85 -9.61l0 7.41 7.23 0c1.8,0 3.16,-0.31 4.09,-0.94 0.92,-0.63 1.39,-1.56 1.39,-2.79 0,-1.22 -0.47,-2.14 -1.39,-2.76 -0.93,-0.61 -2.29,-0.92 -4.09,-0.92l-7.23 0zm8.49 20.47c1.91,0 3.36,-0.31 4.33,-0.94 0.97,-0.63 1.46,-1.6 1.46,-2.92 0,-2.6 -1.93,-3.9 -5.79,-3.9l-8.49 0 0 7.76 8.49 0z"/>
   <path class="fil0" d="M97.13 69.15c-2.49,0 -4.89,-0.34 -7.21,-1.01 -2.31,-0.68 -4.18,-1.55 -5.58,-2.63l2.46 -5.47c1.35,0.98 2.95,1.78 4.81,2.37 1.85,0.6 3.71,0.9 5.56,0.9 2.07,0 3.59,-0.31 4.58,-0.92 0.99,-0.61 1.48,-1.43 1.48,-2.44 0,-0.75 -0.29,-1.37 -0.87,-1.87 -0.58,-0.49 -1.33,-0.89 -2.24,-1.19 -0.92,-0.3 -2.15,-0.63 -3.71,-0.99 -2.39,-0.56 -4.35,-1.13 -5.88,-1.7 -1.53,-0.57 -2.84,-1.48 -3.93,-2.74 -1.09,-1.26 -1.64,-2.93 -1.64,-5.03 0,-1.82 0.5,-3.48 1.49,-4.96 0.98,-1.48 2.47,-2.65 4.46,-3.52 1.99,-0.87 4.42,-1.3 7.3,-1.3 2,0 3.96,0.24 5.88,0.72 1.91,0.48 3.59,1.16 5.03,2.06l-2.25 5.52c-2.9,-1.64 -5.81,-2.47 -8.71,-2.47 -2.03,0 -3.54,0.33 -4.51,0.99 -0.97,0.66 -1.46,1.53 -1.46,2.6 0,1.08 0.56,1.88 1.68,2.4 1.13,0.53 2.84,1.05 5.14,1.55 2.4,0.57 4.36,1.14 5.88,1.71 1.53,0.57 2.84,1.47 3.93,2.69 1.1,1.23 1.64,2.89 1.64,4.99 0,1.79 -0.5,3.43 -1.5,4.91 -1,1.48 -2.51,2.66 -4.51,3.53 -2.01,0.86 -4.45,1.3 -7.32,1.3z"/>
   <polygon class="fil0" points="81.01,62.77 81.01,68.61 56.68,68.61 56.68,37.19 80.42,37.19 80.42,43.02 63.9,43.02 63.9,49.85 78.49,49.85 78.49,55.5 63.9,55.5 63.9,62.77 "/>
   <path class="fil0" d="M41.71 44.1c3.74,0 6.61,0.89 8.62,2.67 2,1.78 3.01,4.47 3.01,8.06l0 13.78 -6.56 0 0 -3.01c-1.31,2.25 -3.77,3.37 -7.36,3.37 -1.85,0 -3.46,-0.32 -4.83,-0.95 -1.36,-0.62 -2.4,-1.49 -3.11,-2.6 -0.72,-1.11 -1.08,-2.36 -1.08,-3.77 0,-2.24 0.84,-4.01 2.53,-5.29 1.7,-1.29 4.31,-1.94 7.84,-1.94l5.56 0c0,-1.52 -0.46,-2.7 -1.39,-3.52 -0.92,-0.82 -2.32,-1.23 -4.17,-1.23 -1.29,0 -2.55,0.2 -3.79,0.6 -1.25,0.41 -2.3,0.95 -3.17,1.64l-2.51 -4.89c1.31,-0.93 2.89,-1.65 4.73,-2.16 1.84,-0.51 3.74,-0.76 5.68,-0.76zm-0.54 20.15c1.2,0 2.26,-0.27 3.19,-0.82 0.93,-0.56 1.59,-1.37 1.97,-2.45l0 -2.47 -4.8 0c-2.87,0 -4.31,0.94 -4.31,2.83 0,0.89 0.35,1.61 1.06,2.13 0.7,0.52 1.67,0.78 2.89,0.78z"/>
   <polygon class="fil0" points="5,37.19 12.27,37.19 12.27,62.68 28.03,62.68 28.03,68.61 5,68.61 "/>
   <path class="fil1" d="M43.19 27.35l1.89 3.28c0.33,0.57 0.13,1.3 -0.44,1.62 -0.19,0.11 -0.39,0.16 -0.59,0.16l0 0 -29.08 0c-0.66,0 -1.19,-0.53 -1.19,-1.19 0,-0.25 0.07,-0.48 0.2,-0.67l4.5 -7.78 0.04 -0.06 9.96 -17.26c0.33,-0.57 1.05,-0.77 1.62,-0.44 0.19,0.11 0.34,0.26 0.44,0.43l0 0 4.39 7.6 -2.75 0 -2.67 -4.63 -8.94 15.48c-0.01,0.03 -0.02,0.05 -0.03,0.07l-3.51 6.07 24.96 0 -1.55 -2.68 2.75 0z"/>
   <polygon class="fil2" points="31.03,15.03 105.53,15.03 105.53,17.41 29.66,17.41 "/>
   <polygon class="fil3" points="28.74,19.01 133.8,19.01 133.8,21.39 27.36,21.39 "/>
   <polygon class="fil4" points="26.44,22.98 100.02,22.98 100.02,25.37 25.07,25.37 "/>
   <path class="fil5" d="M133.8 21.39c-4.17,-0.01 -8.98,-0.03 -13.05,-0.96 -3.75,-0.86 -7.14,-2.52 -11.09,-5.76 -0.66,-0.54 -1.11,-0.73 -1.4,-0.64 -0.35,0.12 -0.71,0.62 -1.08,1.43 -2.52,5.47 -5.32,9.1 -9.13,11.39 -3.8,2.27 -8.52,3.2 -14.89,3.18l-33.09 0 -1.54 -2.68 34.62 0c6.05,0 10.27,-0.51 13.66,-2.54 3.37,-2.02 5.89,-5.33 8.2,-10.35 0.65,-1.41 1.45,-2.34 2.49,-2.69 1.11,-0.36 2.3,-0.05 3.67,1.07 3.63,2.98 6.71,4.49 10.09,5.27 3.93,0.9 8.52,0.86 12.54,0.89l0 2.39z"/>
   <path class="fil6" d="M160.28 50.14l0 -12.17 1.42 0 0 10.89 5.36 0 0 1.28 -6.78 0zm90.85 6.39l3.43 0c1.62,0 2.79,0.25 3.51,0.73 0.72,0.48 1.08,1.24 1.08,2.29 0,0.72 -0.2,1.31 -0.6,1.78 -0.41,0.47 -0.99,0.78 -1.76,0.92l0 0.08c1.84,0.31 2.77,1.28 2.77,2.91 0,1.09 -0.37,1.94 -1.11,2.55 -0.73,0.61 -1.76,0.91 -3.08,0.91l-4.24 0 0 -12.17zm1.41 5.22l2.33 0c1,0 1.72,-0.16 2.16,-0.47 0.44,-0.32 0.66,-0.84 0.66,-1.59 0,-0.68 -0.25,-1.17 -0.74,-1.47 -0.48,-0.31 -1.26,-0.46 -2.32,-0.46l-2.09 0 0 3.99zm0 1.19l0 4.55 2.54 0c0.98,0 1.72,-0.19 2.22,-0.57 0.49,-0.38 0.74,-0.97 0.74,-1.78 0,-0.76 -0.25,-1.31 -0.76,-1.67 -0.5,-0.35 -1.28,-0.53 -2.31,-0.53l-2.43 0zm10.8 5.76l-1.38 0 0 -9.12 1.38 0 0 9.12zm-1.49 -11.59c0,-0.32 0.07,-0.55 0.23,-0.7 0.16,-0.14 0.35,-0.22 0.58,-0.22 0.22,0 0.42,0.08 0.58,0.23 0.16,0.15 0.24,0.38 0.24,0.69 0,0.31 -0.08,0.54 -0.24,0.69 -0.16,0.16 -0.36,0.23 -0.58,0.23 -0.23,0 -0.42,-0.07 -0.58,-0.23 -0.16,-0.15 -0.23,-0.38 -0.23,-0.69zm12.29 7.02c0,1.49 -0.37,2.65 -1.12,3.49 -0.75,0.83 -1.78,1.25 -3.1,1.25 -0.82,0 -1.54,-0.19 -2.17,-0.57 -0.64,-0.39 -1.12,-0.94 -1.47,-1.65 -0.34,-0.72 -0.51,-1.56 -0.51,-2.52 0,-1.48 0.37,-2.64 1.11,-3.47 0.74,-0.83 1.78,-1.25 3.1,-1.25 1.27,0 2.28,0.43 3.04,1.28 0.75,0.85 1.12,2 1.12,3.44zm-6.94 0c0,1.17 0.23,2.06 0.7,2.67 0.46,0.61 1.15,0.91 2.05,0.91 0.9,0 1.59,-0.3 2.06,-0.91 0.47,-0.61 0.7,-1.5 0.7,-2.67 0,-1.15 -0.23,-2.03 -0.7,-2.64 -0.47,-0.6 -1.16,-0.9 -2.08,-0.9 -0.9,0 -1.58,0.3 -2.04,0.89 -0.46,0.59 -0.69,1.48 -0.69,2.65zm15.25 2.09c0,0.85 -0.32,1.5 -0.95,1.96 -0.64,0.46 -1.52,0.69 -2.66,0.69 -1.21,0 -2.15,-0.19 -2.83,-0.57l0 -1.29c0.44,0.23 0.91,0.4 1.41,0.53 0.5,0.13 0.98,0.19 1.45,0.19 0.72,0 1.27,-0.12 1.66,-0.35 0.39,-0.23 0.59,-0.58 0.59,-1.05 0,-0.35 -0.16,-0.66 -0.47,-0.91 -0.3,-0.25 -0.9,-0.55 -1.8,-0.89 -0.85,-0.32 -1.45,-0.6 -1.81,-0.83 -0.35,-0.24 -0.62,-0.51 -0.8,-0.81 -0.17,-0.29 -0.26,-0.65 -0.26,-1.07 0,-0.74 0.3,-1.33 0.91,-1.76 0.6,-0.43 1.43,-0.65 2.49,-0.65 0.98,0 1.94,0.2 2.87,0.6l-0.49 1.13c-0.91,-0.38 -1.74,-0.57 -2.48,-0.57 -0.66,0 -1.15,0.11 -1.48,0.31 -0.34,0.21 -0.5,0.49 -0.5,0.85 0,0.24 0.06,0.45 0.18,0.62 0.13,0.17 0.33,0.34 0.61,0.49 0.27,0.16 0.81,0.38 1.59,0.68 1.09,0.39 1.82,0.79 2.2,1.19 0.38,0.4 0.57,0.9 0.57,1.51zm8.13 0c0,0.85 -0.32,1.5 -0.95,1.96 -0.64,0.46 -1.52,0.69 -2.67,0.69 -1.2,0 -2.15,-0.19 -2.83,-0.57l0 -1.29c0.45,0.23 0.91,0.4 1.42,0.53 0.5,0.13 0.98,0.19 1.45,0.19 0.72,0 1.27,-0.12 1.66,-0.35 0.39,-0.23 0.58,-0.58 0.58,-1.05 0,-0.35 -0.15,-0.66 -0.46,-0.91 -0.31,-0.25 -0.91,-0.55 -1.8,-0.89 -0.85,-0.32 -1.45,-0.6 -1.81,-0.83 -0.36,-0.24 -0.62,-0.51 -0.8,-0.81 -0.17,-0.29 -0.26,-0.65 -0.26,-1.07 0,-0.74 0.3,-1.33 0.91,-1.76 0.6,-0.43 1.43,-0.65 2.49,-0.65 0.98,0 1.93,0.2 2.87,0.6l-0.49 1.13c-0.91,-0.38 -1.74,-0.57 -2.48,-0.57 -0.66,0 -1.15,0.11 -1.49,0.31 -0.33,0.21 -0.5,0.49 -0.5,0.85 0,0.24 0.07,0.45 0.19,0.62 0.13,0.17 0.33,0.34 0.61,0.49 0.27,0.16 0.81,0.38 1.59,0.68 1.08,0.39 1.81,0.79 2.19,1.19 0.38,0.4 0.58,0.9 0.58,1.51zm6.09 2.65c-1.35,0 -2.41,-0.41 -3.19,-1.23 -0.78,-0.82 -1.17,-1.96 -1.17,-3.42 0,-1.47 0.36,-2.64 1.09,-3.51 0.72,-0.86 1.69,-1.3 2.92,-1.3 1.14,0 2.04,0.38 2.71,1.13 0.66,0.75 1,1.74 1,2.98l0 0.87 -6.29 0c0.03,1.07 0.3,1.88 0.81,2.44 0.52,0.55 1.24,0.83 2.17,0.83 0.98,0 1.96,-0.2 2.92,-0.62l0 1.24c-0.49,0.21 -0.96,0.36 -1.39,0.46 -0.44,0.09 -0.96,0.13 -1.58,0.13zm-0.37 -8.3c-0.74,0 -1.32,0.24 -1.75,0.72 -0.44,0.47 -0.7,1.13 -0.77,1.97l4.76 0c0,-0.86 -0.19,-1.53 -0.58,-1.99 -0.39,-0.47 -0.94,-0.7 -1.66,-0.7zm12.32 8.13l0 -5.9c0,-0.74 -0.16,-1.3 -0.5,-1.66 -0.34,-0.37 -0.87,-0.55 -1.59,-0.55 -0.96,0 -1.66,0.26 -2.1,0.77 -0.45,0.52 -0.67,1.37 -0.67,2.56l0 4.78 -1.38 0 0 -9.12 1.12 0 0.23 1.25 0.06 0c0.29,-0.45 0.69,-0.8 1.2,-1.05 0.51,-0.24 1.07,-0.37 1.7,-0.37 1.1,0 1.93,0.27 2.48,0.8 0.56,0.53 0.83,1.38 0.83,2.54l0 5.95 -1.38 0zm10.1 -2.48c0,0.85 -0.32,1.5 -0.95,1.96 -0.63,0.46 -1.52,0.69 -2.66,0.69 -1.21,0 -2.15,-0.19 -2.83,-0.57l0 -1.29c0.44,0.23 0.91,0.4 1.41,0.53 0.51,0.13 0.99,0.19 1.45,0.19 0.73,0 1.28,-0.12 1.67,-0.35 0.39,-0.23 0.58,-0.58 0.58,-1.05 0,-0.35 -0.15,-0.66 -0.46,-0.91 -0.31,-0.25 -0.91,-0.55 -1.8,-0.89 -0.85,-0.32 -1.45,-0.6 -1.81,-0.83 -0.36,-0.24 -0.63,-0.51 -0.8,-0.81 -0.18,-0.29 -0.26,-0.65 -0.26,-1.07 0,-0.74 0.3,-1.33 0.9,-1.76 0.61,-0.43 1.44,-0.65 2.49,-0.65 0.98,0 1.94,0.2 2.88,0.6l-0.49 1.13c-0.92,-0.38 -1.75,-0.57 -2.49,-0.57 -0.65,0 -1.15,0.11 -1.48,0.31 -0.33,0.21 -0.5,0.49 -0.5,0.85 0,0.24 0.06,0.45 0.19,0.62 0.12,0.17 0.32,0.34 0.6,0.49 0.28,0.16 0.81,0.38 1.6,0.68 1.08,0.39 1.81,0.79 2.19,1.19 0.38,0.4 0.57,0.9 0.57,1.51zm10.12 -2.09c0,1.49 -0.38,2.65 -1.12,3.49 -0.75,0.83 -1.79,1.25 -3.11,1.25 -0.81,0 -1.54,-0.19 -2.17,-0.57 -0.63,-0.39 -1.12,-0.94 -1.46,-1.65 -0.35,-0.72 -0.52,-1.56 -0.52,-2.52 0,-1.48 0.37,-2.64 1.12,-3.47 0.74,-0.83 1.77,-1.25 3.09,-1.25 1.28,0 2.29,0.43 3.04,1.28 0.75,0.85 1.13,2 1.13,3.44zm-6.95 0c0,1.17 0.23,2.06 0.7,2.67 0.47,0.61 1.15,0.91 2.06,0.91 0.9,0 1.59,-0.3 2.06,-0.91 0.46,-0.61 0.7,-1.5 0.7,-2.67 0,-1.15 -0.24,-2.03 -0.7,-2.64 -0.47,-0.6 -1.17,-0.9 -2.08,-0.9 -0.91,0 -1.59,0.3 -2.05,0.89 -0.46,0.59 -0.69,1.48 -0.69,2.65zm13.53 -4.72c0.4,0 0.77,0.04 1.09,0.1l-0.19 1.29c-0.38,-0.08 -0.71,-0.12 -1,-0.12 -0.74,0 -1.37,0.29 -1.9,0.89 -0.52,0.6 -0.78,1.35 -0.78,2.24l0 4.89 -1.38 0 0 -9.12 1.14 0 0.15 1.69 0.07 0c0.34,-0.59 0.75,-1.05 1.22,-1.37 0.48,-0.32 1,-0.49 1.58,-0.49zm6.65 9.46c-1.35,0 -2.41,-0.41 -3.19,-1.23 -0.78,-0.82 -1.17,-1.96 -1.17,-3.42 0,-1.47 0.36,-2.64 1.08,-3.51 0.73,-0.86 1.7,-1.3 2.92,-1.3 1.14,0 2.05,0.38 2.71,1.13 0.67,0.75 1,1.74 1,2.98l0 0.87 -6.28 0c0.03,1.07 0.3,1.88 0.81,2.44 0.51,0.55 1.23,0.83 2.17,0.83 0.98,0 1.95,-0.2 2.91,-0.62l0 1.24c-0.49,0.21 -0.95,0.36 -1.39,0.46 -0.43,0.09 -0.96,0.13 -1.57,0.13zm-0.38 -8.3c-0.73,0 -1.31,0.24 -1.75,0.72 -0.44,0.47 -0.69,1.13 -0.77,1.97l4.77 0c0,-0.86 -0.2,-1.53 -0.59,-1.99 -0.38,-0.47 -0.94,-0.7 -1.66,-0.7zm11.97 5.65c0,0.85 -0.32,1.5 -0.95,1.96 -0.64,0.46 -1.52,0.69 -2.67,0.69 -1.2,0 -2.14,-0.19 -2.83,-0.57l0 -1.29c0.45,0.23 0.91,0.4 1.42,0.53 0.5,0.13 0.98,0.19 1.45,0.19 0.72,0 1.27,-0.12 1.66,-0.35 0.39,-0.23 0.58,-0.58 0.58,-1.05 0,-0.35 -0.15,-0.66 -0.46,-0.91 -0.31,-0.25 -0.9,-0.55 -1.8,-0.89 -0.85,-0.32 -1.45,-0.6 -1.81,-0.83 -0.35,-0.24 -0.62,-0.51 -0.8,-0.81 -0.17,-0.29 -0.26,-0.65 -0.26,-1.07 0,-0.74 0.3,-1.33 0.91,-1.76 0.6,-0.43 1.43,-0.65 2.49,-0.65 0.98,0 1.93,0.2 2.87,0.6l-0.49 1.13c-0.91,-0.38 -1.74,-0.57 -2.48,-0.57 -0.66,0 -1.15,0.11 -1.48,0.31 -0.34,0.21 -0.51,0.49 -0.51,0.85 0,0.24 0.07,0.45 0.19,0.62 0.13,0.17 0.33,0.34 0.61,0.49 0.27,0.16 0.81,0.38 1.59,0.68 1.08,0.39 1.81,0.79 2.19,1.19 0.39,0.4 0.58,0.9 0.58,1.51zm-179.13 -16.08l-0.28 -1.3 -0.07 0c-0.45,0.57 -0.9,0.96 -1.36,1.16 -0.45,0.2 -1.01,0.31 -1.69,0.31 -0.91,0 -1.61,-0.24 -2.13,-0.7 -0.51,-0.47 -0.77,-1.13 -0.77,-1.99 0,-1.85 1.48,-2.81 4.42,-2.9l1.55 -0.05 0 -0.57c0,-0.71 -0.16,-1.24 -0.46,-1.58 -0.31,-0.34 -0.8,-0.51 -1.48,-0.51 -0.76,0 -1.62,0.23 -2.58,0.7l-0.42 -1.06c0.45,-0.24 0.94,-0.44 1.47,-0.58 0.54,-0.14 1.08,-0.2 1.61,-0.2 1.09,0 1.89,0.24 2.42,0.72 0.53,0.48 0.79,1.26 0.79,2.32l0 6.23 -1.02 0zm-3.13 -0.98c0.86,0 1.54,-0.23 2.03,-0.7 0.49,-0.47 0.74,-1.13 0.74,-1.98l0 -0.83 -1.39 0.07c-1.09,0.03 -1.89,0.2 -2.37,0.51 -0.49,0.3 -0.73,0.77 -0.73,1.4 0,0.5 0.15,0.89 0.46,1.14 0.3,0.26 0.72,0.39 1.26,0.39zm11.24 -8.29c1.2,0 2.13,0.4 2.79,1.22 0.67,0.82 1,1.98 1,3.48 0,1.5 -0.34,2.66 -1.01,3.49 -0.67,0.83 -1.59,1.25 -2.78,1.25 -0.6,0 -1.14,-0.11 -1.63,-0.33 -0.49,-0.22 -0.9,-0.56 -1.24,-1.01l-0.1 0 -0.29 1.17 -0.99 0 0 -12.95 1.38 0 0 3.14c0,0.71 -0.02,1.34 -0.06,1.9l0.06 0c0.65,-0.91 1.6,-1.36 2.87,-1.36zm-0.2 1.16c-0.94,0 -1.62,0.27 -2.04,0.81 -0.42,0.54 -0.63,1.45 -0.63,2.73 0,1.28 0.22,2.2 0.65,2.75 0.42,0.55 1.11,0.83 2.05,0.83 0.85,0 1.49,-0.31 1.9,-0.93 0.42,-0.62 0.62,-1.5 0.62,-2.67 0,-1.18 -0.2,-2.07 -0.62,-2.65 -0.41,-0.58 -1.06,-0.87 -1.93,-0.87zm14.27 3.54c0,1.49 -0.38,2.65 -1.13,3.48 -0.74,0.84 -1.78,1.26 -3.1,1.26 -0.81,0 -1.54,-0.19 -2.17,-0.58 -0.63,-0.38 -1.12,-0.93 -1.46,-1.65 -0.35,-0.71 -0.52,-1.55 -0.52,-2.51 0,-1.49 0.37,-2.65 1.11,-3.48 0.75,-0.82 1.78,-1.24 3.1,-1.24 1.27,0 2.29,0.42 3.04,1.27 0.75,0.85 1.13,2 1.13,3.45zm-6.95 0c0,1.16 0.23,2.05 0.7,2.66 0.47,0.62 1.15,0.92 2.06,0.92 0.9,0 1.59,-0.3 2.05,-0.91 0.47,-0.61 0.7,-1.5 0.7,-2.67 0,-1.16 -0.23,-2.04 -0.7,-2.64 -0.46,-0.6 -1.16,-0.9 -2.07,-0.9 -0.91,0 -1.59,0.29 -2.05,0.88 -0.46,0.6 -0.69,1.49 -0.69,2.66zm13.53 -4.72c0.4,0 0.76,0.04 1.08,0.1l-0.18 1.29c-0.38,-0.09 -0.72,-0.13 -1,-0.13 -0.74,0 -1.37,0.3 -1.9,0.9 -0.52,0.6 -0.78,1.35 -0.78,2.24l0 4.89 -1.38 0 0 -9.12 1.14 0 0.15 1.68 0.07 0c0.34,-0.59 0.75,-1.05 1.22,-1.37 0.48,-0.32 1,-0.48 1.58,-0.48zm8.4 9.29l-0.27 -1.3 -0.07 0c-0.46,0.57 -0.91,0.96 -1.36,1.16 -0.45,0.2 -1.02,0.31 -1.69,0.31 -0.91,0 -1.62,-0.24 -2.13,-0.7 -0.51,-0.47 -0.77,-1.13 -0.77,-1.99 0,-1.85 1.47,-2.81 4.42,-2.9l1.54 -0.05 0 -0.57c0,-0.71 -0.15,-1.24 -0.46,-1.58 -0.31,-0.34 -0.8,-0.51 -1.47,-0.51 -0.76,0 -1.62,0.23 -2.58,0.7l-0.43 -1.06c0.45,-0.24 0.94,-0.44 1.48,-0.58 0.54,-0.14 1.07,-0.2 1.61,-0.2 1.09,0 1.89,0.24 2.42,0.72 0.52,0.48 0.78,1.26 0.78,2.32l0 6.23 -1.02 0zm-3.12 -0.98c0.86,0 1.53,-0.23 2.02,-0.7 0.5,-0.47 0.74,-1.13 0.74,-1.98l0 -0.83 -1.38 0.07c-1.1,0.03 -1.89,0.2 -2.38,0.51 -0.48,0.3 -0.72,0.77 -0.72,1.4 0,0.5 0.15,0.89 0.45,1.14 0.3,0.26 0.73,0.39 1.27,0.39zm9.94 0c0.24,0 0.48,-0.01 0.7,-0.05 0.23,-0.04 0.41,-0.07 0.54,-0.11l0 1.06c-0.15,0.07 -0.37,0.13 -0.66,0.18 -0.29,0.04 -0.55,0.07 -0.79,0.07 -1.76,0 -2.64,-0.93 -2.64,-2.79l0 -5.43 -1.31 0 0 -0.66 1.31 -0.58 0.58 -1.94 0.8 0 0 2.11 2.65 0 0 1.07 -2.65 0 0 5.37c0,0.55 0.13,0.97 0.39,1.27 0.26,0.29 0.62,0.43 1.08,0.43zm10.94 -3.59c0,1.49 -0.38,2.65 -1.13,3.48 -0.75,0.84 -1.78,1.26 -3.1,1.26 -0.81,0 -1.54,-0.19 -2.17,-0.58 -0.63,-0.38 -1.12,-0.93 -1.46,-1.65 -0.35,-0.71 -0.52,-1.55 -0.52,-2.51 0,-1.49 0.37,-2.65 1.12,-3.48 0.73,-0.82 1.77,-1.24 3.09,-1.24 1.28,0 2.29,0.42 3.04,1.27 0.75,0.85 1.13,2 1.13,3.45zm-6.95 0c0,1.16 0.23,2.05 0.7,2.66 0.46,0.62 1.15,0.92 2.05,0.92 0.91,0 1.59,-0.3 2.06,-0.91 0.47,-0.61 0.71,-1.5 0.71,-2.67 0,-1.16 -0.24,-2.04 -0.71,-2.64 -0.47,-0.6 -1.16,-0.9 -2.07,-0.9 -0.91,0 -1.59,0.29 -2.05,0.88 -0.46,0.6 -0.69,1.49 -0.69,2.66zm1.6 -5.97c0.26,-0.34 0.55,-0.76 0.86,-1.24 0.31,-0.49 0.55,-0.91 0.72,-1.28l1.68 0 0 0.18c-0.24,0.36 -0.6,0.8 -1.09,1.33 -0.48,0.53 -0.9,0.93 -1.25,1.22l-0.92 0 0 -0.21zm11.93 1.25c0.4,0 0.76,0.04 1.08,0.1l-0.19 1.29c-0.37,-0.09 -0.71,-0.13 -1,-0.13 -0.73,0 -1.36,0.3 -1.89,0.9 -0.52,0.6 -0.78,1.35 -0.78,2.24l0 4.89 -1.38 0 0 -9.12 1.14 0 0.15 1.68 0.07 0c0.34,-0.59 0.74,-1.05 1.22,-1.37 0.48,-0.32 1,-0.48 1.58,-0.48zm4.17 9.29l-1.38 0 0 -9.12 1.38 0 0 9.12zm-1.49 -11.6c0,-0.31 0.07,-0.54 0.23,-0.69 0.16,-0.15 0.35,-0.22 0.58,-0.22 0.22,0 0.42,0.07 0.58,0.22 0.16,0.16 0.24,0.38 0.24,0.69 0,0.32 -0.08,0.55 -0.24,0.7 -0.16,0.15 -0.36,0.23 -0.58,0.23 -0.23,0 -0.42,-0.08 -0.58,-0.23 -0.16,-0.15 -0.23,-0.38 -0.23,-0.7zm12.29 7.03c0,1.49 -0.37,2.65 -1.12,3.48 -0.75,0.84 -1.78,1.26 -3.1,1.26 -0.82,0 -1.54,-0.19 -2.18,-0.58 -0.63,-0.38 -1.11,-0.93 -1.46,-1.65 -0.34,-0.71 -0.51,-1.55 -0.51,-2.51 0,-1.49 0.37,-2.65 1.11,-3.48 0.74,-0.82 1.78,-1.24 3.09,-1.24 1.28,0 2.29,0.42 3.05,1.27 0.75,0.85 1.12,2 1.12,3.45zm-6.94 0c0,1.16 0.23,2.05 0.7,2.66 0.46,0.62 1.15,0.92 2.05,0.92 0.91,0 1.59,-0.3 2.06,-0.91 0.47,-0.61 0.7,-1.5 0.7,-2.67 0,-1.16 -0.23,-2.04 -0.7,-2.64 -0.47,-0.6 -1.16,-0.9 -2.08,-0.9 -0.9,0 -1.58,0.29 -2.04,0.88 -0.46,0.6 -0.69,1.49 -0.69,2.66zm20 3.35l-0.07 0c-0.64,0.93 -1.6,1.39 -2.86,1.39 -1.2,0 -2.13,-0.41 -2.79,-1.23 -0.66,-0.81 -0.99,-1.97 -0.99,-3.48 0,-1.5 0.33,-2.67 1,-3.5 0.66,-0.83 1.59,-1.25 2.78,-1.25 1.23,0 2.18,0.45 2.84,1.35l0.11 0 -0.06 -0.66 -0.03 -0.64 0 -3.71 1.38 0 0 12.95 -1.12 0 -0.19 -1.22zm-2.76 0.23c0.94,0 1.63,-0.26 2.05,-0.77 0.42,-0.51 0.64,-1.34 0.64,-2.49l0 -0.29c0,-1.29 -0.22,-2.21 -0.65,-2.76 -0.43,-0.56 -1.12,-0.83 -2.06,-0.83 -0.81,0 -1.43,0.31 -1.86,0.94 -0.43,0.63 -0.64,1.52 -0.64,2.67 0,1.17 0.21,2.04 0.64,2.64 0.43,0.59 1.05,0.89 1.88,0.89zm10.85 1.16c-1.35,0 -2.41,-0.42 -3.19,-1.24 -0.78,-0.82 -1.17,-1.96 -1.17,-3.42 0,-1.47 0.36,-2.64 1.08,-3.5 0.73,-0.87 1.7,-1.3 2.92,-1.3 1.14,0 2.05,0.38 2.71,1.13 0.67,0.75 1,1.74 1,2.97l0 0.88 -6.28 0c0.03,1.07 0.3,1.88 0.81,2.43 0.51,0.56 1.23,0.84 2.17,0.84 0.98,0 1.95,-0.21 2.91,-0.62l0 1.23c-0.49,0.22 -0.95,0.37 -1.39,0.46 -0.43,0.09 -0.96,0.14 -1.57,0.14zm-0.38 -8.3c-0.73,0 -1.31,0.24 -1.75,0.72 -0.43,0.47 -0.69,1.13 -0.77,1.97l4.77 0c0,-0.87 -0.19,-1.54 -0.58,-2 -0.39,-0.46 -0.95,-0.69 -1.67,-0.69zm17.5 8.13l-6.78 0 0 -12.17 6.78 0 0 1.26 -5.36 0 0 3.92 5.04 0 0 1.25 -5.04 0 0 4.48 5.36 0 0 1.26zm8.37 -2.49c0,0.85 -0.32,1.51 -0.95,1.97 -0.63,0.46 -1.52,0.69 -2.66,0.69 -1.21,0 -2.15,-0.19 -2.83,-0.58l0 -1.28c0.44,0.22 0.91,0.4 1.41,0.53 0.51,0.12 0.99,0.18 1.45,0.18 0.73,0 1.28,-0.11 1.67,-0.34 0.39,-0.23 0.58,-0.58 0.58,-1.05 0,-0.36 -0.15,-0.66 -0.46,-0.91 -0.31,-0.26 -0.91,-0.55 -1.8,-0.9 -0.85,-0.31 -1.45,-0.59 -1.81,-0.83 -0.36,-0.23 -0.63,-0.5 -0.8,-0.8 -0.18,-0.3 -0.26,-0.66 -0.26,-1.08 0,-0.74 0.3,-1.32 0.9,-1.76 0.61,-0.42 1.44,-0.64 2.49,-0.64 0.98,0 1.94,0.2 2.88,0.6l-0.49 1.12c-0.92,-0.37 -1.75,-0.56 -2.49,-0.56 -0.65,0 -1.15,0.1 -1.48,0.31 -0.33,0.2 -0.5,0.48 -0.5,0.84 0,0.25 0.06,0.46 0.19,0.63 0.12,0.17 0.32,0.33 0.6,0.49 0.28,0.15 0.81,0.38 1.6,0.67 1.08,0.4 1.81,0.8 2.19,1.19 0.38,0.41 0.57,0.91 0.57,1.51zm6.49 2.66c-0.59,0 -1.14,-0.11 -1.63,-0.33 -0.48,-0.22 -0.9,-0.56 -1.23,-1.01l-0.1 0c0.06,0.53 0.1,1.03 0.1,1.51l0 3.75 -1.38 0 0 -13.21 1.12 0 0.19 1.24 0.07 0c0.35,-0.5 0.77,-0.86 1.24,-1.08 0.47,-0.22 1.01,-0.33 1.62,-0.33 1.21,0 2.15,0.42 2.8,1.24 0.66,0.83 0.99,1.99 0.99,3.48 0,1.5 -0.34,2.66 -1,3.49 -0.67,0.83 -1.6,1.25 -2.79,1.25zm-0.2 -8.28c-0.93,0 -1.6,0.25 -2.02,0.77 -0.42,0.52 -0.63,1.34 -0.64,2.46l0 0.31c0,1.28 0.21,2.2 0.64,2.75 0.43,0.55 1.11,0.83 2.06,0.83 0.78,0 1.4,-0.32 1.85,-0.96 0.44,-0.64 0.67,-1.52 0.67,-2.64 0,-1.13 -0.23,-2 -0.67,-2.61 -0.45,-0.61 -1.08,-0.91 -1.89,-0.91zm10.25 8.28c-1.35,0 -2.41,-0.42 -3.19,-1.24 -0.78,-0.82 -1.17,-1.96 -1.17,-3.42 0,-1.47 0.36,-2.64 1.09,-3.5 0.72,-0.87 1.69,-1.3 2.91,-1.3 1.15,0 2.05,0.38 2.72,1.13 0.66,0.75 1,1.74 1,2.97l0 0.88 -6.29 0c0.03,1.07 0.3,1.88 0.81,2.43 0.52,0.56 1.24,0.84 2.17,0.84 0.98,0 1.95,-0.21 2.91,-0.62l0 1.23c-0.49,0.22 -0.95,0.37 -1.38,0.46 -0.44,0.09 -0.96,0.14 -1.58,0.14zm-0.37 -8.3c-0.74,0 -1.32,0.24 -1.75,0.72 -0.44,0.47 -0.7,1.13 -0.77,1.97l4.76 0c0,-0.87 -0.19,-1.54 -0.58,-2 -0.39,-0.46 -0.94,-0.69 -1.66,-0.69zm9.72 8.3c-1.32,0 -2.34,-0.41 -3.06,-1.22 -0.73,-0.82 -1.09,-1.97 -1.09,-3.45 0,-1.53 0.37,-2.71 1.1,-3.54 0.74,-0.83 1.79,-1.25 3.14,-1.25 0.44,0 0.88,0.05 1.32,0.14 0.44,0.1 0.78,0.21 1.03,0.34l-0.43 1.17c-0.3,-0.12 -0.63,-0.22 -0.99,-0.3 -0.36,-0.08 -0.68,-0.12 -0.96,-0.12 -1.85,0 -2.78,1.18 -2.78,3.54 0,1.12 0.23,1.98 0.68,2.58 0.45,0.6 1.12,0.9 2.01,0.9 0.76,0 1.54,-0.17 2.34,-0.5l0 1.23c-0.61,0.32 -1.38,0.48 -2.31,0.48zm7.42 -1.15c0.24,0 0.48,-0.01 0.7,-0.05 0.23,-0.04 0.41,-0.07 0.54,-0.11l0 1.06c-0.15,0.07 -0.37,0.13 -0.66,0.18 -0.29,0.04 -0.55,0.07 -0.78,0.07 -1.77,0 -2.65,-0.93 -2.65,-2.79l0 -5.43 -1.31 0 0 -0.66 1.31 -0.58 0.58 -1.94 0.8 0 0 2.11 2.65 0 0 1.07 -2.65 0 0 5.37c0,0.55 0.13,0.97 0.39,1.27 0.26,0.29 0.62,0.43 1.08,0.43zm7.22 -8.31c0.41,0 0.77,0.04 1.09,0.1l-0.19 1.29c-0.38,-0.09 -0.71,-0.13 -1,-0.13 -0.73,0 -1.36,0.3 -1.89,0.9 -0.52,0.6 -0.78,1.35 -0.78,2.24l0 4.89 -1.39 0 0 -9.12 1.15 0 0.15 1.68 0.07 0c0.34,-0.59 0.74,-1.05 1.22,-1.37 0.48,-0.32 1,-0.48 1.57,-0.48zm10.67 4.72c0,1.49 -0.37,2.65 -1.12,3.48 -0.75,0.84 -1.79,1.26 -3.11,1.26 -0.81,0 -1.53,-0.19 -2.17,-0.58 -0.63,-0.38 -1.12,-0.93 -1.46,-1.65 -0.35,-0.71 -0.52,-1.55 -0.52,-2.51 0,-1.49 0.37,-2.65 1.12,-3.48 0.74,-0.82 1.77,-1.24 3.09,-1.24 1.28,0 2.29,0.42 3.04,1.27 0.76,0.85 1.13,2 1.13,3.45zm-6.95 0c0,1.16 0.24,2.05 0.7,2.66 0.47,0.62 1.15,0.92 2.06,0.92 0.9,0 1.59,-0.3 2.06,-0.91 0.47,-0.61 0.7,-1.5 0.7,-2.67 0,-1.16 -0.23,-2.04 -0.7,-2.64 -0.47,-0.6 -1.16,-0.9 -2.08,-0.9 -0.9,0 -1.59,0.29 -2.05,0.88 -0.46,0.6 -0.69,1.49 -0.69,2.66zm20.99 4.57l0 -5.94c0,-0.72 -0.15,-1.26 -0.46,-1.63 -0.31,-0.36 -0.8,-0.54 -1.45,-0.54 -0.86,0 -1.49,0.24 -1.91,0.74 -0.41,0.49 -0.61,1.25 -0.61,2.28l0 5.09 -1.38 0 0 -5.94c0,-0.72 -0.16,-1.26 -0.47,-1.63 -0.31,-0.36 -0.79,-0.54 -1.46,-0.54 -0.86,0 -1.49,0.25 -1.89,0.77 -0.41,0.52 -0.61,1.37 -0.61,2.55l0 4.79 -1.38 0 0 -9.12 1.13 0 0.22 1.24 0.07 0c0.26,-0.44 0.62,-0.78 1.1,-1.03 0.47,-0.26 1.01,-0.38 1.59,-0.38 1.43,0 2.36,0.52 2.8,1.55l0.06 0c0.27,-0.48 0.67,-0.86 1.18,-1.13 0.52,-0.28 1.11,-0.42 1.77,-0.42 1.03,0 1.8,0.26 2.32,0.8 0.51,0.52 0.77,1.37 0.77,2.54l0 5.95 -1.39 0zm8.08 0.17c-1.34,0 -2.41,-0.42 -3.18,-1.24 -0.79,-0.82 -1.18,-1.96 -1.18,-3.42 0,-1.47 0.37,-2.64 1.09,-3.5 0.72,-0.87 1.69,-1.3 2.92,-1.3 1.14,0 2.04,0.38 2.71,1.13 0.66,0.75 1,1.74 1,2.97l0 0.88 -6.28 0c0.02,1.07 0.29,1.88 0.81,2.43 0.51,0.56 1.23,0.84 2.16,0.84 0.98,0 1.96,-0.21 2.92,-0.62l0 1.23c-0.49,0.22 -0.96,0.37 -1.39,0.46 -0.43,0.09 -0.96,0.14 -1.58,0.14zm-0.37 -8.3c-0.73,0 -1.32,0.24 -1.75,0.72 -0.44,0.47 -0.69,1.13 -0.77,1.97l4.77 0c0,-0.87 -0.2,-1.54 -0.59,-2 -0.39,-0.46 -0.94,-0.69 -1.66,-0.69zm9.03 7.15c0.24,0 0.48,-0.01 0.7,-0.05 0.23,-0.04 0.41,-0.07 0.54,-0.11l0 1.06c-0.15,0.07 -0.37,0.13 -0.66,0.18 -0.29,0.04 -0.55,0.07 -0.78,0.07 -1.77,0 -2.65,-0.93 -2.65,-2.79l0 -5.43 -1.31 0 0 -0.66 1.31 -0.58 0.58 -1.94 0.8 0 0 2.11 2.65 0 0 1.07 -2.65 0 0 5.37c0,0.55 0.13,0.97 0.39,1.27 0.26,0.29 0.62,0.43 1.08,0.43zm7.23 -8.31c0.4,0 0.76,0.04 1.08,0.1l-0.19 1.29c-0.37,-0.09 -0.71,-0.13 -1,-0.13 -0.73,0 -1.36,0.3 -1.89,0.9 -0.52,0.6 -0.78,1.35 -0.78,2.24l0 4.89 -1.39 0 0 -9.12 1.15 0 0.15 1.68 0.07 0c0.34,-0.59 0.75,-1.05 1.22,-1.37 0.48,-0.32 1,-0.48 1.58,-0.48zm4.17 9.29l-1.38 0 0 -9.12 1.38 0 0 9.12zm-1.49 -11.6c0,-0.31 0.07,-0.54 0.23,-0.69 0.15,-0.15 0.35,-0.22 0.58,-0.22 0.22,0 0.42,0.07 0.57,0.22 0.17,0.16 0.25,0.38 0.25,0.69 0,0.32 -0.08,0.55 -0.25,0.7 -0.15,0.15 -0.35,0.23 -0.57,0.23 -0.23,0 -0.43,-0.08 -0.58,-0.23 -0.16,-0.15 -0.23,-0.38 -0.23,-0.7zm10.03 11.6l-0.28 -1.3 -0.06 0c-0.46,0.57 -0.91,0.96 -1.36,1.16 -0.46,0.2 -1.02,0.31 -1.7,0.31 -0.9,0 -1.61,-0.24 -2.12,-0.7 -0.51,-0.47 -0.77,-1.13 -0.77,-1.99 0,-1.85 1.47,-2.81 4.42,-2.9l1.54 -0.05 0 -0.57c0,-0.71 -0.15,-1.24 -0.46,-1.58 -0.31,-0.34 -0.8,-0.51 -1.47,-0.51 -0.76,0 -1.62,0.23 -2.58,0.7l-0.43 -1.06c0.45,-0.24 0.94,-0.44 1.48,-0.58 0.53,-0.14 1.07,-0.2 1.61,-0.2 1.09,0 1.89,0.24 2.42,0.72 0.52,0.48 0.78,1.26 0.78,2.32l0 6.23 -1.02 0zm-3.12 -0.98c0.86,0 1.53,-0.23 2.02,-0.7 0.49,-0.47 0.74,-1.13 0.74,-1.98l0 -0.83 -1.38 0.07c-1.1,0.03 -1.89,0.2 -2.38,0.51 -0.48,0.3 -0.72,0.77 -0.72,1.4 0,0.5 0.15,0.89 0.45,1.14 0.3,0.26 0.73,0.39 1.27,0.39zm8.44 -1l0.12 0.19c-0.14,0.56 -0.35,1.2 -0.62,1.93 -0.27,0.74 -0.56,1.42 -0.85,2.05l-1.04 0c0.15,-0.57 0.31,-1.28 0.49,-2.13 0.18,-0.85 0.31,-1.53 0.38,-2.04l1.52 0zm-237.73 17.31c0,1.07 -0.39,1.91 -1.17,2.51 -0.77,0.59 -1.83,0.89 -3.16,0.89 -1.44,0 -2.55,-0.19 -3.33,-0.56l0 -1.36c0.5,0.21 1.04,0.37 1.63,0.5 0.59,0.12 1.17,0.18 1.75,0.18 0.94,0 1.65,-0.18 2.13,-0.54 0.48,-0.36 0.72,-0.85 0.72,-1.49 0,-0.42 -0.09,-0.77 -0.26,-1.03 -0.17,-0.27 -0.45,-0.52 -0.84,-0.75 -0.4,-0.23 -1.01,-0.49 -1.82,-0.77 -1.13,-0.41 -1.94,-0.89 -2.42,-1.44 -0.49,-0.56 -0.73,-1.28 -0.73,-2.18 0,-0.93 0.35,-1.68 1.05,-2.23 0.71,-0.56 1.64,-0.84 2.8,-0.84 1.21,0 2.33,0.23 3.34,0.67l-0.44 1.23c-1.01,-0.42 -1.98,-0.63 -2.93,-0.63 -0.75,0 -1.34,0.16 -1.76,0.48 -0.42,0.32 -0.63,0.77 -0.63,1.34 0,0.43 0.08,0.77 0.23,1.04 0.16,0.27 0.42,0.51 0.79,0.74 0.37,0.22 0.93,0.47 1.69,0.74 1.28,0.46 2.16,0.95 2.64,1.47 0.48,0.52 0.72,1.2 0.72,2.03zm6.13 3.4c-1.35,0 -2.41,-0.41 -3.19,-1.23 -0.78,-0.82 -1.17,-1.96 -1.17,-3.42 0,-1.47 0.36,-2.64 1.08,-3.51 0.73,-0.86 1.7,-1.3 2.92,-1.3 1.14,0 2.05,0.38 2.71,1.13 0.67,0.75 1,1.74 1,2.98l0 0.87 -6.28 0c0.03,1.07 0.3,1.88 0.81,2.44 0.51,0.55 1.23,0.83 2.17,0.83 0.98,0 1.95,-0.2 2.91,-0.62l0 1.24c-0.49,0.21 -0.95,0.36 -1.39,0.46 -0.43,0.09 -0.96,0.13 -1.57,0.13zm-0.38 -8.3c-0.73,0 -1.31,0.24 -1.75,0.72 -0.44,0.47 -0.69,1.13 -0.77,1.97l4.77 0c0,-0.86 -0.19,-1.53 -0.58,-1.99 -0.39,-0.47 -0.95,-0.7 -1.67,-0.7zm12.33 8.13l0 -5.9c0,-0.74 -0.17,-1.3 -0.51,-1.66 -0.34,-0.37 -0.87,-0.55 -1.59,-0.55 -0.96,0 -1.65,0.26 -2.1,0.77 -0.44,0.52 -0.66,1.37 -0.66,2.56l0 4.78 -1.39 0 0 -9.12 1.13 0 0.22 1.25 0.07 0c0.28,-0.45 0.68,-0.8 1.19,-1.05 0.51,-0.24 1.08,-0.37 1.71,-0.37 1.1,0 1.92,0.27 2.48,0.8 0.55,0.53 0.83,1.38 0.83,2.54l0 5.95 -1.38 0zm10.1 -2.48c0,0.85 -0.32,1.5 -0.95,1.96 -0.64,0.46 -1.52,0.69 -2.67,0.69 -1.2,0 -2.14,-0.19 -2.83,-0.57l0 -1.29c0.45,0.23 0.91,0.4 1.42,0.53 0.5,0.13 0.98,0.19 1.45,0.19 0.72,0 1.27,-0.12 1.66,-0.35 0.39,-0.23 0.58,-0.58 0.58,-1.05 0,-0.35 -0.15,-0.66 -0.46,-0.91 -0.31,-0.25 -0.9,-0.55 -1.8,-0.89 -0.85,-0.32 -1.45,-0.6 -1.81,-0.83 -0.35,-0.24 -0.62,-0.51 -0.8,-0.81 -0.17,-0.29 -0.26,-0.65 -0.26,-1.07 0,-0.74 0.3,-1.33 0.91,-1.76 0.6,-0.43 1.43,-0.65 2.49,-0.65 0.98,0 1.94,0.2 2.87,0.6l-0.49 1.13c-0.91,-0.38 -1.74,-0.57 -2.48,-0.57 -0.66,0 -1.15,0.11 -1.48,0.31 -0.34,0.21 -0.51,0.49 -0.51,0.85 0,0.24 0.07,0.45 0.19,0.62 0.13,0.17 0.33,0.34 0.61,0.49 0.27,0.16 0.81,0.38 1.59,0.68 1.08,0.39 1.81,0.79 2.2,1.19 0.38,0.4 0.57,0.9 0.57,1.51zm10.11 -2.09c0,1.49 -0.37,2.65 -1.12,3.49 -0.75,0.83 -1.78,1.25 -3.1,1.25 -0.82,0 -1.54,-0.19 -2.18,-0.57 -0.63,-0.39 -1.11,-0.94 -1.46,-1.65 -0.34,-0.72 -0.51,-1.56 -0.51,-2.52 0,-1.48 0.37,-2.64 1.11,-3.47 0.74,-0.83 1.78,-1.25 3.09,-1.25 1.28,0 2.29,0.43 3.04,1.28 0.76,0.85 1.13,2 1.13,3.44zm-6.94 0c0,1.17 0.23,2.06 0.69,2.67 0.47,0.61 1.15,0.91 2.06,0.91 0.9,0 1.59,-0.3 2.06,-0.91 0.47,-0.61 0.7,-1.5 0.7,-2.67 0,-1.15 -0.23,-2.03 -0.7,-2.64 -0.47,-0.6 -1.16,-0.9 -2.08,-0.9 -0.9,0 -1.58,0.3 -2.04,0.89 -0.46,0.59 -0.69,1.48 -0.69,2.65zm13.52 -4.72c0.41,0 0.77,0.04 1.09,0.1l-0.19 1.29c-0.38,-0.08 -0.71,-0.12 -1,-0.12 -0.74,0 -1.37,0.29 -1.89,0.89 -0.52,0.6 -0.79,1.35 -0.79,2.24l0 4.89 -1.38 0 0 -9.12 1.14 0 0.16 1.69 0.07 0c0.34,-0.59 0.74,-1.05 1.22,-1.37 0.48,-0.32 1,-0.49 1.57,-0.49zm6.65 9.46c-1.35,0 -2.41,-0.41 -3.19,-1.23 -0.78,-0.82 -1.17,-1.96 -1.17,-3.42 0,-1.47 0.36,-2.64 1.09,-3.51 0.72,-0.86 1.69,-1.3 2.91,-1.3 1.14,0 2.05,0.38 2.72,1.13 0.66,0.75 0.99,1.74 0.99,2.98l0 0.87 -6.28 0c0.03,1.07 0.3,1.88 0.81,2.44 0.52,0.55 1.24,0.83 2.17,0.83 0.98,0 1.95,-0.2 2.91,-0.62l0 1.24c-0.49,0.21 -0.95,0.36 -1.38,0.46 -0.44,0.09 -0.96,0.13 -1.58,0.13zm-0.37 -8.3c-0.74,0 -1.32,0.24 -1.75,0.72 -0.44,0.47 -0.7,1.13 -0.77,1.97l4.76 0c0,-0.86 -0.19,-1.53 -0.58,-1.99 -0.39,-0.47 -0.94,-0.7 -1.66,-0.7zm11.96 5.65c0,0.85 -0.32,1.5 -0.95,1.96 -0.63,0.46 -1.52,0.69 -2.66,0.69 -1.21,0 -2.15,-0.19 -2.83,-0.57l0 -1.29c0.44,0.23 0.91,0.4 1.41,0.53 0.5,0.13 0.99,0.19 1.45,0.19 0.72,0 1.28,-0.12 1.67,-0.35 0.39,-0.23 0.58,-0.58 0.58,-1.05 0,-0.35 -0.15,-0.66 -0.46,-0.91 -0.31,-0.25 -0.91,-0.55 -1.8,-0.89 -0.85,-0.32 -1.46,-0.6 -1.81,-0.83 -0.36,-0.24 -0.63,-0.51 -0.8,-0.81 -0.18,-0.29 -0.26,-0.65 -0.26,-1.07 0,-0.74 0.3,-1.33 0.9,-1.76 0.61,-0.43 1.44,-0.65 2.49,-0.65 0.98,0 1.94,0.2 2.88,0.6l-0.49 1.13c-0.92,-0.38 -1.75,-0.57 -2.49,-0.57 -0.66,0 -1.15,0.11 -1.48,0.31 -0.33,0.21 -0.5,0.49 -0.5,0.85 0,0.24 0.06,0.45 0.19,0.62 0.12,0.17 0.32,0.34 0.6,0.49 0.28,0.16 0.81,0.38 1.6,0.68 1.08,0.39 1.81,0.79 2.19,1.19 0.38,0.4 0.57,0.9 0.57,1.51zm10.53 2.65c-1.35,0 -2.42,-0.41 -3.19,-1.23 -0.79,-0.82 -1.17,-1.96 -1.17,-3.42 0,-1.47 0.36,-2.64 1.08,-3.51 0.73,-0.86 1.7,-1.3 2.92,-1.3 1.14,0 2.04,0.38 2.71,1.13 0.66,0.75 1,1.74 1,2.98l0 0.87 -6.28 0c0.03,1.07 0.3,1.88 0.81,2.44 0.51,0.55 1.23,0.83 2.17,0.83 0.98,0 1.95,-0.2 2.91,-0.62l0 1.24c-0.49,0.21 -0.95,0.36 -1.39,0.46 -0.43,0.09 -0.96,0.13 -1.57,0.13zm-0.38 -8.3c-0.73,0 -1.31,0.24 -1.75,0.72 -0.44,0.47 -0.69,1.13 -0.77,1.97l4.77 0c0,-0.86 -0.2,-1.53 -0.59,-1.99 -0.38,-0.47 -0.94,-0.7 -1.66,-0.7z"/>
  </g>
 </g>
</svg>
